# xmcd
#
# Track frame offsets:
#	150
#	15902
#	33915
#	49155
#	65600
#	82397
#	95792
#	110705
#	125882
#	140537
#	156597
#	173475
#	186472
#	201642
#	221397
#	234927
#	250757
#	267432
#
# Disc length: 3780 seconds
#
# Revision: 1
# Processed by: cddbd v1.4b42PL1 Copyright (c) Steve Scherf et al.
# Submitted via: audiograbber 1.80
#
DISCID=140ec212
DTITLE=Stefan Borsch - Adress Rosenhill
DYEAR=1900
DGENRE=
TTITLE0=Adress Rosenhill
TTITLE1=En Annan Du, En Annan Jag
TTITLE2=Jag Har En Dröm
TTITLE3=Om Du Bara Vill
TTITLE4=Du Skall Icke Mej Rosor
TTITLE5=Stopp Stanna Upp
TTITLE6=Bara Du Just Nu
TTITLE7=Vår Bästa Tid Är Nu
TTITLE8=Inga Blommor Växer På En Sjömans Grav
TTITLE9=Det Bor En Ängel I Dej
TTITLE10=Strangers In The Night
TTITLE11=Cherio
TTITLE12=Det Stormar Inte Mer
TTITLE13=Adagio
TTITLE14=En Liten Fågel
TTITLE15=Din
TTITLE16=Vid En Liten Fiskehamn
TTITLE17=Höstguld
EXTD=
EXTT0=
EXTT1=
EXTT2=
EXTT3=
EXTT4=
EXTT5=
EXTT6=
EXTT7=
EXTT8=
EXTT9=
EXTT10=
EXTT11=
EXTT12=
EXTT13=
EXTT14=
EXTT15=
EXTT16=
EXTT17=
PLAYORDER=
